<?xml version="1.0" encoding="UTF-8" standalone="no"?><!DOCTYPE svg PUBLIC "-//W3C//DTD SVG 1.1//EN" "http://www.w3.org/Graphics/SVG/1.1/DTD/svg11.dtd"><svg width="100%" height="100%" viewBox="0 0 200 200" version="1.1" xmlns="http://www.w3.org/2000/svg" xmlns:xlink="http://www.w3.org/1999/xlink" xml:space="preserve" style="fill-rule:evenodd;clip-rule:evenodd;stroke-linejoin:round;stroke-miterlimit:1.41421;"><g><circle cx="100" cy="100" r="100" style="fill:#f00;"/><path d="M60.056,62.011l9.429,29.021l30.515,0l-24.687,17.936l9.43,29.021l-24.687,-17.936l-24.687,17.936l9.429,-29.021l-24.687,-17.936l30.515,0l9.43,-29.021Z" style="fill:#ff0;"/><path d="M138.317,38.552l0.221,11.26l10.777,3.269l-10.64,3.689l0.221,11.259l-6.797,-8.979l-10.64,3.69l6.439,-9.239l-6.797,-8.979l10.777,3.269l6.439,-9.239Z" style="fill:#ff0;"/><path d="M155.859,65.047l6.403,9.264l10.789,-3.227l-6.832,8.952l6.403,9.264l-10.625,-3.731l-6.832,8.952l0.265,-11.258l-10.625,-3.731l10.789,-3.227l0.265,-11.258Z" style="fill:#ff0;"/><path d="M158.868,103.425l4.124,10.479l11.241,-0.684l-8.692,7.161l4.125,10.479l-9.496,-6.054l-8.692,7.161l2.823,-10.902l-9.496,-6.053l11.24,-0.685l2.823,-10.902Z" style="fill:#ff0;"/><path d="M138.779,131.967l-0.133,11.261l10.669,3.606l-10.751,3.353l-0.133,11.261l-6.511,-9.189l-10.751,3.354l6.727,-9.032l-6.512,-9.188l10.669,3.606l6.726,-9.032Z" style="fill:#ff0;"/></g></svg>