<?xml version="1.0" encoding="UTF-8" standalone="no"?><!DOCTYPE svg PUBLIC "-//W3C//DTD SVG 1.1//EN" "http://www.w3.org/Graphics/SVG/1.1/DTD/svg11.dtd"><svg width="100%" height="100%" viewBox="0 0 200 200" version="1.1" xmlns="http://www.w3.org/2000/svg" xmlns:xlink="http://www.w3.org/1999/xlink" xml:space="preserve" style="fill-rule:evenodd;clip-rule:evenodd;stroke-linecap:round;stroke-linejoin:round;stroke-miterlimit:1.5;"><circle cx="100" cy="100" r="100" style="fill:#e0162b;"/><clipPath id="_clip1"><circle cx="100" cy="100" r="100"/></clipPath><g clip-path="url(#_clip1)"><rect x="0" y="32" width="200" height="32" style="fill:#fff;"/><rect x="0" y="100" width="200" height="32" style="fill:#fff;"/><rect x="0" y="164" width="200" height="32" style="fill:#fff;"/><g><rect x="0" y="0" width="100" height="100" style="fill:#0052a5;"/><path d="M78.897,26.671l3.479,10.71l11.262,0l-9.111,6.62l3.48,10.71l-9.11,-6.619l-9.111,6.619l3.48,-10.71l-9.111,-6.62l11.262,0l3.48,-10.71Z" style="fill:#fff;stroke:#fff;stroke-width:1px;"/><path d="M39.259,26.671l3.48,10.71l11.261,0l-9.111,6.62l3.48,10.71l-9.11,-6.619l-9.111,6.619l3.48,-10.71l-9.111,-6.62l11.262,0l3.48,-10.71Z" style="fill:#fff;stroke:#fff;stroke-width:1px;"/><path d="M39.259,65l3.48,10.71l11.261,0l-9.111,6.62l3.48,10.71l-9.11,-6.62l-9.111,6.62l3.48,-10.71l-9.111,-6.62l11.262,0l3.48,-10.71Z" style="fill:#fff;stroke:#fff;stroke-width:1px;"/><path d="M78.897,65l3.479,10.71l11.262,0l-9.111,6.62l3.48,10.71l-9.11,-6.62l-9.111,6.62l3.48,-10.71l-9.111,-6.62l11.262,0l3.48,-10.71Z" style="fill:#fff;stroke:#fff;stroke-width:1px;"/></g></g></svg>