<?xml version="1.0" encoding="UTF-8" standalone="no"?><!DOCTYPE svg PUBLIC "-//W3C//DTD SVG 1.1//EN" "http://www.w3.org/Graphics/SVG/1.1/DTD/svg11.dtd"><svg width="100%" height="100%" viewBox="0 0 630 215" version="1.1" xmlns="http://www.w3.org/2000/svg" xmlns:xlink="http://www.w3.org/1999/xlink" xml:space="preserve" style="fill-rule:evenodd;clip-rule:evenodd;stroke-linejoin:round;stroke-miterlimit:1.41421;"><path d="M550.756,51.068l-7.311,0l-3.454,-5.993c-0.78,-1.342 -2.048,-1.342 -2.817,0l-3.466,5.993l-7.313,0c-1.548,0 -2.182,1.099 -1.403,2.441l3.653,6.332l-3.653,6.326c-0.779,1.335 -0.145,2.44 1.403,2.44l7.313,0l3.466,5.994c0.769,1.34 2.037,1.34 2.817,0l3.454,-5.994l7.311,0c1.555,0 2.188,-1.105 1.408,-2.44l-3.654,-6.326l3.654,-6.332c0.78,-1.342 0.147,-2.441 -1.408,-2.441Z" style="fill:#fff;fill-rule:nonzero;"/><path d="M420.652,94.896l0.299,0l0,-14.293l-0.299,0c-5.756,0 -11.405,1.566 -16.344,4.526l-1.277,0.762l0,-5.288l-14.302,0l0,69.856l14.302,0l0,-37.939c0,-9.72 7.904,-17.624 17.621,-17.624Z" style="fill:#fff;fill-rule:nonzero;"/><path d="M508.892,84.686l-1.277,0.766l0,-5.299l-14.298,0l0,70.306l14.298,0l0,-38.375c0,-9.721 7.906,-17.631 17.622,-17.631l0.303,0l0,-14.3l-0.303,0c-5.755,0 -11.403,1.57 -16.345,4.533Z" style="fill:#fff;fill-rule:nonzero;"/><rect x="426.79" y="80.603" width="14.294" height="69.856" style="fill:#fff;fill-rule:nonzero;"/><rect x="426.98" y="59.913" width="14.291" height="14.3" style="fill:#fff;fill-rule:nonzero;"/><rect x="531.376" y="80.603" width="14.298" height="69.856" style="fill:#fff;fill-rule:nonzero;"/><path d="M474.316,150.459l0,-55.563l13.147,0l0,-14.293l-13.147,0l0,-20.69l-14.293,0l0,20.69l-13.138,0l0,14.293l13.138,0l0,55.563l14.293,0Z" style="fill:#fff;fill-rule:nonzero;"/><path d="M348.94,136.255c-0.52,-0.065 -1.057,-0.098 -1.606,-0.098l-6.798,0c-11.375,0 -20.628,-9.256 -20.628,-20.627c0,-11.378 9.253,-20.634 20.628,-20.634l22.7,0l0,55.563l14.296,0l0,-69.856l-36.996,0c-19.262,0 -34.929,15.668 -34.929,34.927c0,19.259 15.667,34.929 34.929,34.929l8.404,0l0,-14.204Z" style="fill:#fff;fill-rule:nonzero;"/><path d="M594.235,80.603l-36.996,0l0,90.291l14.297,0l0,-75.998l22.699,0c11.38,0 20.639,9.256 20.639,20.634c0,11.371 -9.259,20.627 -20.639,20.627l-6.796,0c-0.313,0 -0.638,0.014 -0.981,0.042l0,14.26l7.777,0c19.259,0 34.928,-15.67 34.928,-34.929c0,-19.259 -15.669,-34.927 -34.928,-34.927Z" style="fill:#fff;fill-rule:nonzero;"/><path d="M300.132,59.99l-25.777,53.513l-5.294,-10.986c-6.238,-12.943 -16.057,-33.313 -20.478,-42.527l-18.841,0l44.613,92.624l44.612,-92.624l-18.835,0Z" style="fill:#fff;fill-rule:nonzero;"/><path d="M165.653,110.127l-1.071,1.832c-0.846,1.154 -2.076,2.234 -3.63,3.198c-6.523,5.394 -12.505,12.386 -17.307,20.708c-4.85,8.418 -7.931,17.191 -9.318,25.629c0.023,-0.292 0.043,-0.578 0.043,-0.871l0,-0.372l-0.038,0.433c0,2.305 -0.431,4.256 -1.202,5.794l-0.536,0.925c-1.202,1.795 -2.969,2.869 -5.097,3.097l-1.747,0c-1.409,-0.14 -2.911,-0.624 -4.495,-1.433c-8.008,-3.017 -17.136,-4.724 -26.835,-4.724c-9.718,0 -18.856,1.725 -26.86,4.74c-1.576,0.806 -3.081,1.29 -4.474,1.439l-1.745,0c-2.12,-0.219 -3.9,-1.301 -5.102,-3.119l-0.523,-0.892c-0.682,-1.353 -1.086,-3.049 -1.179,-5.023c-1.392,-8.432 -4.464,-17.201 -9.321,-25.602c-4.812,-8.325 -10.803,-15.322 -17.335,-20.711c-1.543,-0.963 -2.757,-2.042 -3.613,-3.184l-1.06,-1.833c-0.728,-1.738 -0.728,-3.571 0,-5.314l1.06,-1.84c0.947,-1.27 2.308,-2.47 4.097,-3.5l0.164,-0.122l-0.117,0.074c-0.267,0.154 -0.491,0.316 -0.74,0.471c6.624,-5.422 12.673,-12.48 17.525,-20.891c4.856,-8.395 7.942,-17.181 9.329,-25.615c0.092,-1.929 0.491,-3.605 1.174,-4.954l0.506,-0.892c1.215,-1.812 2.979,-2.885 5.111,-3.112l1.74,0c1.404,0.142 2.927,0.622 4.512,1.45c7.984,3.004 17.108,4.714 26.81,4.714c9.709,-0.005 18.86,-1.719 26.871,-4.743c-0.278,0.131 -0.531,0.244 -0.793,0.399l-0.035,0.018l0.035,-0.018c1.871,-1.074 3.638,-1.678 5.264,-1.827l1.749,-0.006c2.134,0.236 3.891,1.297 5.095,3.092l0.523,0.925c0.786,1.547 1.215,3.492 1.215,5.799l0.047,0.24l-0.006,-0.24c0.006,-0.309 -0.03,-0.588 -0.041,-0.881c1.391,8.434 4.474,17.223 9.333,25.633c4.86,8.398 10.906,15.462 17.527,20.873c-0.248,-0.157 -0.471,-0.311 -0.728,-0.462l-0.103,-0.054l0.14,0.104c1.796,1.025 3.169,2.223 4.121,3.496l1.06,1.839c0.712,1.745 0.712,3.574 0,5.313Zm20.473,36.455l-0.096,-0.245l0.087,0.16c0.215,0.382 0.395,0.754 0.603,1.143c-4.533,-11.988 -7.1,-25.666 -7.118,-40.214c0,-14.559 2.576,-28.261 7.086,-40.246c-0.185,0.394 -0.368,0.777 -0.6,1.171l-0.165,0.309l0.117,-0.338c1.732,-2.995 2.63,-5.853 2.785,-8.429l0,-1.596c-0.225,-3.23 -1.704,-5.943 -4.29,-7.835l-2.292,-1.299c-2.207,-1.011 -4.951,-1.565 -8.178,-1.565l-0.075,-0.011l0.059,0c0.45,0 0.881,0.038 1.325,0.061c-12.662,-2.074 -25.805,-6.695 -38.411,-13.969c-12.574,-7.251 -23.132,-16.29 -31.256,-26.183c-1.427,-2.261 -3.047,-4.019 -4.766,-5.263l-2.256,-1.294c-2.94,-1.315 -6.038,-1.246 -8.961,0.193l-1.329,0.784c-1.886,1.236 -3.665,3.11 -5.235,5.547c-8.124,9.905 -18.686,18.989 -31.283,26.257c-12.595,7.273 -25.731,11.9 -38.368,13.979c0.423,-0.027 0.845,-0.061 1.279,-0.061l0.225,0l-0.312,0.029c-3.089,0 -5.757,0.527 -7.941,1.458l-2.753,1.605c-2.246,1.707 -3.608,4.09 -3.974,6.889l0,3.161c0.259,2.137 1.016,4.452 2.305,6.844c4.445,11.896 6.971,25.455 6.971,39.87c0.004,14.531 -2.556,28.209 -7.077,40.19c-1.355,2.625 -2.108,5.127 -2.232,7.413l0,1.535c0.214,3.266 1.697,5.972 4.309,7.859l2.252,1.306c1.907,0.863 4.228,1.367 6.879,1.503c12.654,2.071 25.79,6.685 38.39,13.968c12.601,7.273 23.169,16.322 31.293,26.239c1.437,2.222 3.035,3.984 4.734,5.22l2.293,1.313c2.928,1.297 6.018,1.222 8.921,-0.205l1.383,-0.808c2.162,-1.422 4.182,-3.626 5.903,-6.614l0.381,-0.545l-0.279,0.486c-0.225,0.394 -0.469,0.743 -0.71,1.103c8.12,-9.908 18.693,-18.992 31.29,-26.27c12.461,-7.202 25.455,-11.789 37.956,-13.892c2.748,-0.09 5.141,-0.581 7.118,-1.432l2.744,-1.585c2.248,-1.725 3.612,-4.096 3.996,-6.896l0,-3.173c-0.291,-2.377 -1.17,-4.936 -2.727,-7.627Z" style="fill:#fff;fill-rule:nonzero;"/><path d="M123.597,86.479l-17.512,0l-8.292,-14.356c-1.86,-3.224 -4.889,-3.224 -6.749,0l-8.289,14.356l-17.497,0c-3.714,0 -5.231,2.634 -3.38,5.848l8.754,15.163l-8.754,15.154c-1.851,3.223 -0.334,5.849 3.38,5.849l17.497,0l8.289,14.353c1.86,3.218 4.889,3.218 6.749,0l8.292,-14.353l17.512,0c3.707,0 5.231,-2.626 3.366,-5.849l-8.753,-15.154l8.753,-15.163c1.865,-3.214 0.341,-5.848 -3.366,-5.848Z" style="fill:#fff;fill-rule:nonzero;"/></svg>